<!-- Created with Inkscape (http://www.inkscape.org/) -->
<svg xmlns:rdf="http://www.w3.org/1999/02/22-rdf-syntax-ns#" xmlns="http://www.w3.org/2000/svg" height="100%" width="100%" version="1.1" xmlns:cc="http://creativecommons.org/ns#" xmlns:dc="http://purl.org/dc/elements/1.1/" viewBox="0 0 24 18.678162">
 <path fill="#808080" d="M7.4522,18.04,0.61363,10.88c-0.40909-0.395-0.61363-0.9335-0.61363-1.5265,0-0.5932,0.20454-1.125,0.61363-1.5273l6.8386-7.187c0.81134-0.85227,2.1341-0.85227,2.9454,0,0.81134,0.85227,0.81134,2.2296,0,3.0818l-3.2799,3.4363h14.796c1.1523,0,2.0864,0.97501,2.0864,2.1818s-0.93407,2.1818-2.0864,2.1818h-14.796l3.2864,3.4363c0.81134,0.85227,0.81134,2.2296,0,3.0818-0.81819,0.85228-2.1341,0.85228-2.9523,0z"/>
</svg>
