<!-- Created with Inkscape (http://www.inkscape.org/) -->
<svg xmlns:rdf="http://www.w3.org/1999/02/22-rdf-syntax-ns#" xmlns="http://www.w3.org/2000/svg" height="100%" width="100%" version="1.1" xmlns:cc="http://creativecommons.org/ns#" xmlns:dc="http://purl.org/dc/elements/1.1/" viewBox="0 0 48 48">
 <g transform="translate(-348.04724,-502.1811)">
  <path d="m288.9,146.46a139.4,136.37,0,1,1,-278.8,0,139.4,136.37,0,1,1,278.8,0z" transform="matrix(0.17216513,0,0,0.17599102,346.30811,500.40601)" fill="#a7a7a7"/>
 </g>
 <g transform="translate(-348.04724,-502.1811)">
  <rect transform="matrix(0.70710678,-0.70710678,0.70710678,0.70710678,0,0)" fill-opacity="0.2" ry="1.6" height="3.2" width="12.229" y="634.11" x="-129.23" fill="#000"/>
  <rect transform="matrix(0.70710678,-0.70710678,0.70710678,0.70710678,0,0)" fill-opacity="0.2" ry="1.6" height="3.2" width="12.16" y="628.03" x="-108.11" fill="#000"/>
  <rect transform="matrix(0.70710678,-0.70710678,0.70710678,0.70710678,0,0)" fill-opacity="0.2" ry="1.6" height="3.2" width="12.16" y="640.19" x="-108.11" fill="#000"/>
  <rect transform="matrix(0.70710678,-0.70710678,0.70710678,0.70710678,0,0)" ry="1.6" height="3.2" width="12.16" y="626.9" x="-106.98" fill="#FFF"/>
  <rect transform="matrix(0.70710678,-0.70710678,0.70710678,0.70710678,0,0)" ry="1.6" height="3.2" width="12.229" y="632.98" x="-128.1" fill="#FFF"/>
  <rect transform="matrix(0.70710678,-0.70710678,0.70710678,0.70710678,0,0)" ry="1.6" height="3.2" width="12.16" y="639.06" x="-106.98" fill="#FFF"/>
  <path d="m361.3,524.15c-3.1339,3.1339-3.1339,8.1798,0,11.314l2.2627,2.2627c3.1339,3.1339,8.1798,3.1339,11.314,0l0.94752-0.94752,0.6364-0.6364,5.6568-5.6568-5.6568-5.6568-2.2627-2.2628-5.6569-5.6568-5.6568,5.6568-0.6364,0.6364-0.94752,0.94752z" fill-opacity="0.2" fill="#000"/>
  <path fill="#FFF" d="m361.3,522.55c-3.1339,3.1339-3.1339,8.1798,0,11.314l2.2627,2.2627c3.1339,3.1339,8.1798,3.1339,11.314,0l0.94752-0.94752,0.6364-0.6364,5.6568-5.6568-5.6568-5.6568-2.2627-2.2628-5.6569-5.6568-5.6568,5.6568-0.6364,0.6364-0.94752,0.94752z"/>
  <rect transform="matrix(0.70710678,-0.70710678,0.70710678,0.70710678,0,0)" fill-opacity="0.2" ry="1.6" height="24" width="3.2" y="623.71" x="-108.11" fill="#000"/>
  <rect transform="matrix(0.70710678,-0.70710678,0.70710678,0.70710678,0,0)" ry="1.6" height="24" width="3.2" y="622.58" x="-106.98" fill="#FFF"/>
 </g>
</svg>
