<!-- Created with Inkscape (http://www.inkscape.org/) -->
<svg xmlns:rdf="http://www.w3.org/1999/02/22-rdf-syntax-ns#" xmlns="http://www.w3.org/2000/svg" version="1.1" xmlns:cc="http://creativecommons.org/ns#" xmlns:xlink="http://www.w3.org/1999/xlink" viewBox="0 0 116 116" xmlns:dc="http://purl.org/dc/elements/1.1/">
 <defs>
  <linearGradient id="linearGradient4035" y2="100.54" gradientUnits="userSpaceOnUse" x2="73.496" y1="-13.834" x1="73.496">
   <stop stop-color="#dd4126" offset="0"/>
   <stop stop-color="#b2191c" offset="1"/>
  </linearGradient>
 </defs>
 <path d="m132.5,43.536a58.929,58.036,0,1,1,-117.86,0,58.929,58.036,0,1,1,117.86,0z" transform="matrix(0.95030306,0,0,0.9649231,-11.915151,15.991385)" stroke="#e6e6e6" stroke-dasharray="none" stroke-miterlimit="4" stroke-width="4.17717409" fill="url(#linearGradient4035)"/>
 <rect transform="matrix(0.70710848,-0.70710508,0.70710848,0.70710508,0,0)" fill-opacity="0.2902" ry="3.4603" height="6.9205" width="26.446" y="81.393" x="-40.989" fill="#000"/>
 <rect transform="matrix(0.70710741,-0.70710615,0.70710741,0.70710615,0,0)" fill-opacity="0.2902" ry="3.4603" height="6.9205" width="26.298" y="68.121" x="4.5642" fill="#000"/>
 <rect transform="matrix(0.70710741,-0.70710615,0.70710741,0.70710615,0,0)" fill-opacity="0.2902" ry="3.4603" height="6.9205" width="26.298" y="94.419" x="4.5642" fill="#000"/>
 <rect ry="3.4602" transform="matrix(0.70710678,-0.70710678,0.70710678,0.70710678,0,0)" height="6.9205" width="26.298" y="65.447" x="6.3408" fill="#ececec"/>
 <rect ry="3.4602" transform="matrix(0.70710678,-0.70710678,0.70710678,0.70710678,0,0)" height="6.9205" width="26.298" y="91.745" x="6.3408" fill="#ececec"/>
 <rect ry="3.4602" transform="matrix(0.70710678,-0.70710678,0.70710678,0.70710678,0,0)" height="6.9205" width="26.446" y="78.596" x="-39.334" fill="#333"/>
 <path fill-opacity="0.29019608" fill="#000" d="m37.868,52.771c-6.7776,6.7775-6.7776,17.69,0,24.468l4.8935,4.8935c6.7776,6.7775,17.69,6.7775,24.468,0l2.0492-2.0492,1.3763-1.3763,12.233-12.234-12.234-12.234-4.893-4.893-12.234-12.234-12.234,12.234-1.3763,1.3763-2.0492,2.0492z"/>
 <path d="m37.06,49.624c-6.7775,6.7775-6.7775,17.69,0,24.468l4.8935,4.8935c6.7775,6.7775,17.69,6.7775,24.468,0l2.0492-2.0492,1.3763-1.3763,12.234-12.234-12.234-12.234-4.8935-4.8935-12.234-12.234-12.234,12.234-1.3763,1.3763-2.0492,2.0492z" fill="#333"/>
 <rect transform="matrix(0.70710848,-0.70710508,0.70710848,0.70710508,0,0)" fill-opacity="0.2902" ry="3.4603" height="51.904" width="6.9205" y="58.901" x="4.6865" fill="#000"/>
 <rect ry="3.4602" transform="matrix(0.70710678,-0.70710678,0.70710678,0.70710678,0,0)" height="51.904" width="6.9205" y="56.104" x="6.3408" fill="#333"/>
</svg>
